<svg id="flat-export" height="512" viewBox="0 0 512 512" width="512" xmlns="http://www.w3.org/2000/svg"><path d="m347.4332 358.28341-87.902 43.951a14.86491 14.86491 0 0 0 -7.45431 17.99629 14.86492 14.86492 0 0 0 16.20432 10.01482l62.75389-8.96483z" fill="#ffbfa1"/><path d="m164.5668 153.71659 87.902-43.951a14.86491 14.86491 0 0 0 7.45431-17.99629 14.86492 14.86492 0 0 0 -16.20432-10.01482l-62.75389 8.96483z" fill="#ffbfa1"/><circle cx="256" cy="256" fill="#788dff" r="144"/><path d="m88 112h32l68.906-45.93733a12.2814 12.2814 0 0 1 6.81253-2.06267 12.28146 12.28146 0 0 1 12.28147 12.28146 12.2814 12.2814 0 0 1 -2.06267 6.81253l-29.93733 44.90601v.00008a79.99991 79.99991 0 0 1 -79.99992 79.99992h-8.00008z" fill="#ffceb6"/><path d="m16 112h72v96h-72z" fill="#ffa100"/><circle cx="256" cy="256" fill="#4f5dff" r="112"/><path d="m283.999 252.402h16.001v79.196h-16.001z" fill="#f5714f" transform="matrix(.707 -.707 .707 .707 -120.95 292)"/><g fill="#c5dafa"><path d="m123.707 405.99805c4.97949 4.39453 10.23535 8.58789 15.62109 12.46289l9.34376-12.98828c-4.957-3.56641-9.79395-7.42578-14.377-11.47071z"/><path d="m126.11914 386.333a182.60334 182.60334 0 0 1 -53.74243-118.64257l9.96606 9.9668 11.31446-11.31446-24-24a8.003 8.003 0 0 0 -11.31446 0l-24 24 11.31446 11.31446 10.64843-10.64893a198.5044 198.5044 0 0 0 58.51856 130.6587z"/><path d="m372.67188 93.53906-9.34376 12.98828c4.957 3.56641 9.79395 7.42578 14.377 11.47071l10.58788-11.99605c-4.97952-4.39458-10.23538-8.58794-15.62112-12.46294z"/><path d="m466.34277 234.34277-10.64843 10.64893a198.50491 198.50491 0 0 0 -58.51856-130.6587l-11.29492 11.334a182.60484 182.60484 0 0 1 53.74268 118.64258l-9.96631-9.9668-11.31446 11.31446 24 24a8.00181 8.00181 0 0 0 11.31446 0l24-24z"/></g><path d="m240 176h32a0 0 0 0 1 0 0v80a16 16 0 0 1 -16 16 16 16 0 0 1 -16-16v-80a0 0 0 0 1 0 0z" fill="#e0edff"/><path d="m424 400h-32l-68.906 45.93733a12.2814 12.2814 0 0 1 -6.81253 2.06267 12.28146 12.28146 0 0 1 -12.28147-12.28146 12.2814 12.2814 0 0 1 2.06267-6.81253l29.93733-44.90601v-.00008a79.99991 79.99991 0 0 1 79.99992-79.99992h8.00008z" fill="#ffceb6"/><path d="m424 304h72v96h-72z" fill="#ffa100"/></svg>